<svg width="30" height="30" viewBox="0 0 30 30" fill="none" xmlns="http://www.w3.org/2000/svg">
<path d="M25.3745 6.25827C24.7727 5.65611 24.0581 5.17843 23.2715 4.85253C22.485 4.52663 21.6419 4.35889 20.7906 4.35889C19.9392 4.35889 19.0961 4.52663 18.3096 4.85253C17.5231 5.17843 16.8084 5.65611 16.2066 6.25827L14.9575 7.50738L13.7083 6.25827C12.4926 5.04252 10.8437 4.35952 9.12435 4.35952C7.40502 4.35952 5.75611 5.04252 4.54035 6.25827C3.3246 7.47402 2.6416 9.12293 2.6416 10.8423C2.6416 12.5616 3.3246 14.2105 4.54035 15.4263L5.78946 16.6754L14.9575 25.8434L24.1254 16.6754L25.3745 15.4263C25.9767 14.8244 26.4544 14.1098 26.7803 13.3232C27.1062 12.5367 27.2739 11.6936 27.2739 10.8423C27.2739 9.99088 27.1062 9.14784 26.7803 8.3613C26.4544 7.57477 25.9767 6.86015 25.3745 6.25827Z" fill="#FF2630" stroke="#FF2630" stroke-width="2.26748" stroke-linecap="round" stroke-linejoin="round"/>
</svg>
