<svg width="573" height="118" viewBox="0 0 573 118" fill="none" xmlns="http://www.w3.org/2000/svg">
<circle cx="27.5" cy="2.5" r="2.5" fill="#C4C4C4" fill-opacity="0.32"/>
<circle cx="44.5" cy="2.5" r="2.5" fill="#C4C4C4" fill-opacity="0.32"/>
<circle cx="61.5" cy="2.5" r="2.5" fill="#C4C4C4" fill-opacity="0.32"/>
<circle cx="78.5" cy="2.5" r="2.5" fill="#C4C4C4" fill-opacity="0.32"/>
<circle cx="95.5" cy="2.5" r="2.5" fill="#C4C4C4" fill-opacity="0.32"/>
<circle cx="112.5" cy="2.5" r="2.5" fill="#C4C4C4" fill-opacity="0.32"/>
<circle cx="129.5" cy="2.5" r="2.5" fill="#C4C4C4" fill-opacity="0.32"/>
<circle cx="146.5" cy="2.5" r="2.5" fill="#C4C4C4" fill-opacity="0.32"/>
<circle cx="163.5" cy="2.5" r="2.5" fill="#C4C4C4" fill-opacity="0.32"/>
<circle cx="180.5" cy="2.5" r="2.5" fill="#C4C4C4" fill-opacity="0.32"/>
<circle cx="197.5" cy="2.5" r="2.5" fill="#C4C4C4" fill-opacity="0.32"/>
<circle cx="214.5" cy="2.5" r="2.5" fill="#C4C4C4" fill-opacity="0.32"/>
<circle cx="281.5" cy="115.5" r="2.5" fill="#C4C4C4" fill-opacity="0.32"/>
<circle cx="298.5" cy="115.5" r="2.5" fill="#C4C4C4" fill-opacity="0.32"/>
<circle cx="315.5" cy="115.5" r="2.5" fill="#C4C4C4" fill-opacity="0.32"/>
<circle cx="332.5" cy="115.5" r="2.5" fill="#C4C4C4" fill-opacity="0.32"/>
<circle cx="349.5" cy="115.5" r="2.5" fill="#C4C4C4" fill-opacity="0.32"/>
<circle cx="366.5" cy="115.5" r="2.5" fill="#C4C4C4" fill-opacity="0.32"/>
<circle cx="179.5" cy="114.5" r="2.5" fill="#C4C4C4" fill-opacity="0.32"/>
<circle cx="196.5" cy="114.5" r="2.5" fill="#C4C4C4" fill-opacity="0.32"/>
<circle cx="213.5" cy="114.5" r="2.5" fill="#C4C4C4" fill-opacity="0.32"/>
<circle cx="230.5" cy="114.5" r="2.5" fill="#C4C4C4" fill-opacity="0.32"/>
<circle cx="247.5" cy="114.5" r="2.5" fill="#C4C4C4" fill-opacity="0.32"/>
<circle cx="264.5" cy="114.5" r="2.5" fill="#C4C4C4" fill-opacity="0.32"/>
<circle cx="383.5" cy="115.5" r="2.5" fill="#C4C4C4" fill-opacity="0.32"/>
<circle cx="400.5" cy="115.5" r="2.5" fill="#C4C4C4" fill-opacity="0.32"/>
<circle cx="417.5" cy="115.5" r="2.5" fill="#C4C4C4" fill-opacity="0.32"/>
<circle cx="434.5" cy="115.5" r="2.5" fill="#C4C4C4" fill-opacity="0.32"/>
<circle cx="451.5" cy="115.5" r="2.5" fill="#C4C4C4" fill-opacity="0.32"/>
<circle cx="468.5" cy="115.5" r="2.5" fill="#C4C4C4" fill-opacity="0.32"/>
<circle cx="485.5" cy="114.5" r="2.5" fill="#C4C4C4" fill-opacity="0.32"/>
<circle cx="502.5" cy="114.5" r="2.5" fill="#C4C4C4" fill-opacity="0.32"/>
<circle cx="519.5" cy="114.5" r="2.5" fill="#C4C4C4" fill-opacity="0.32"/>
<circle cx="536.5" cy="114.5" r="2.5" fill="#C4C4C4" fill-opacity="0.32"/>
<circle cx="553.5" cy="114.5" r="2.5" fill="#C4C4C4" fill-opacity="0.32"/>
<circle cx="570.5" cy="114.5" r="2.5" fill="#C4C4C4" fill-opacity="0.32"/>
<circle cx="77.5" cy="114.5" r="2.5" fill="#C4C4C4" fill-opacity="0.32"/>
<circle cx="94.5" cy="114.5" r="2.5" fill="#C4C4C4" fill-opacity="0.32"/>
<circle cx="111.5" cy="114.5" r="2.5" fill="#C4C4C4" fill-opacity="0.32"/>
<circle cx="128.5" cy="114.5" r="2.5" fill="#C4C4C4" fill-opacity="0.32"/>
<circle cx="145.5" cy="114.5" r="2.5" fill="#C4C4C4" fill-opacity="0.32"/>
<circle cx="162.5" cy="114.5" r="2.5" fill="#C4C4C4" fill-opacity="0.32"/>
<circle cx="2.5" cy="114.5" r="2.5" fill="#C4C4C4" fill-opacity="0.32"/>
<circle cx="19.5" cy="114.5" r="2.5" fill="#C4C4C4" fill-opacity="0.32"/>
<circle cx="36.5" cy="114.5" r="2.5" fill="#C4C4C4" fill-opacity="0.32"/>
<circle cx="53.5" cy="114.5" r="2.5" fill="#C4C4C4" fill-opacity="0.32"/>
<circle cx="172.5" cy="60.5" r="2.5" fill="#C4C4C4" fill-opacity="0.32"/>
<circle cx="189.5" cy="60.5" r="2.5" fill="#C4C4C4" fill-opacity="0.32"/>
<circle cx="206.5" cy="60.5" r="2.5" fill="#C4C4C4" fill-opacity="0.32"/>
<circle cx="70.5" cy="60.5" r="2.5" fill="#C4C4C4" fill-opacity="0.32"/>
<circle cx="87.5" cy="60.5" r="2.5" fill="#C4C4C4" fill-opacity="0.32"/>
<circle cx="104.5" cy="60.5" r="2.5" fill="#C4C4C4" fill-opacity="0.32"/>
<circle cx="121.5" cy="60.5" r="2.5" fill="#C4C4C4" fill-opacity="0.32"/>
<circle cx="138.5" cy="60.5" r="2.5" fill="#C4C4C4" fill-opacity="0.32"/>
<circle cx="155.5" cy="60.5" r="2.5" fill="#C4C4C4" fill-opacity="0.32"/>
<circle cx="2.5" cy="60.5" r="2.5" fill="#C4C4C4" fill-opacity="0.32"/>
<circle cx="19.5" cy="60.5" r="2.5" fill="#C4C4C4" fill-opacity="0.32"/>
<circle cx="36.5" cy="60.5" r="2.5" fill="#C4C4C4" fill-opacity="0.32"/>
<circle cx="53.5" cy="60.5" r="2.5" fill="#C4C4C4" fill-opacity="0.32"/>
</svg>
